<svg width="19" height="19" viewBox="0 0 19 19" fill="none" xmlns="http://www.w3.org/2000/svg">
<path d="M18.391 16.771L14.574 12.954C15.6359 11.5597 16.2053 9.85257 16.193 8.09999C16.2 7.03491 15.9955 5.97903 15.5914 4.99358C15.1873 4.00812 14.5915 3.1127 13.8387 2.35923C13.0859 1.60576 12.191 1.00924 11.2059 0.604258C10.2208 0.199272 9.16508 -0.00611919 8.09999 -7.39218e-06C7.03432 -0.00704966 5.97786 0.197655 4.99194 0.602224C4.00603 1.00679 3.11029 1.60317 2.35673 2.35673C1.60317 3.11029 1.00679 4.00603 0.602224 4.99194C0.197655 5.97786 -0.00704966 7.03432 -7.39218e-06 8.09999C-0.00704966 9.16567 0.197655 10.2221 0.602224 11.208C1.00679 12.194 1.60317 13.0897 2.35673 13.8433C3.11029 14.5968 4.00603 15.1932 4.99194 15.5978C5.97786 16.0023 7.03432 16.207 8.09999 16.2C9.85394 16.2132 11.5626 15.6438 12.958 14.581L16.775 18.398L18.391 16.771ZM2.31299 8.09999C2.30496 7.3378 2.44917 6.58168 2.73715 5.87594C3.02513 5.1702 3.45109 4.52905 3.99007 3.99007C4.52905 3.45109 5.1702 3.02513 5.87594 2.73715C6.58168 2.44917 7.3378 2.30496 8.09999 2.31299C8.8616 2.3059 9.61697 2.4508 10.3219 2.7392C11.0268 3.0276 11.6671 3.45371 12.2054 3.9926C12.7436 4.53148 13.1689 5.17231 13.4565 5.87758C13.744 6.58285 13.888 7.3384 13.88 8.09999C13.8871 8.861 13.7424 9.61579 13.4544 10.3202C13.1665 11.0247 12.741 11.6647 12.2028 12.2028C11.6647 12.741 11.0247 13.1665 10.3202 13.4544C9.61579 13.7424 8.861 13.8871 8.09999 13.88C7.3384 13.888 6.58285 13.744 5.87758 13.4565C5.17231 13.1689 4.53148 12.7436 3.9926 12.2054C3.45371 11.6671 3.0276 11.0268 2.7392 10.3219C2.4508 9.61697 2.3059 8.8616 2.31299 8.09999Z" fill="#919191"/>
</svg>
