<svg width="20" height="20" viewBox="0 0 20 20" fill="none" xmlns="http://www.w3.org/2000/svg">
<path d="M5.36001 11.207L8.19001 8.37702L1.17001 1.36702C0.420855 2.11833 0.000167847 3.13603 0.000167847 4.19702C0.000167847 5.25801 0.420855 6.27571 1.17001 7.02702L5.36001 11.207ZM12.14 9.39702C13.0558 9.71948 14.0472 9.76037 14.9864 9.51442C15.9257 9.26847 16.7698 8.74694 17.41 8.01702C19.32 6.10702 19.69 3.36702 18.22 1.89702C16.75 0.427017 14.02 0.797017 12.1 2.70702C11.3701 3.34724 10.8486 4.19134 10.6026 5.13059C10.3566 6.06984 10.3975 7.06121 10.72 7.97702L0.960006 17.737L2.37001 19.147L9.26001 12.277L16.14 19.157L17.55 17.747L10.67 10.867L12.14 9.39702Z" fill="#FF0000"/>
</svg>
