<svg width="16" height="19" viewBox="0 0 16 19" fill="none" xmlns="http://www.w3.org/2000/svg">
<path d="M0.560455 4.21875C0.560455 3.19531 0.884674 2.35156 1.53311 1.6875C2.18936 1.02344 3.02921 0.691406 4.05264 0.691406C5.09171 0.691406 5.93155 1.02734 6.57217 1.69922C7.22061 2.36328 7.54483 3.22656 7.54483 4.28906V5.12109C7.54483 6.15234 7.21671 6.99609 6.56046 7.65234C5.91202 8.30078 5.08389 8.625 4.07608 8.625C3.06046 8.625 2.22061 8.30078 1.55655 7.65234C0.892487 6.99609 0.560455 6.125 0.560455 5.03906V4.21875ZM2.17764 5.12109C2.17764 5.73047 2.34952 6.23438 2.69327 6.63281C3.03702 7.02344 3.49796 7.21875 4.07608 7.21875C4.63077 7.21875 5.07608 7.02734 5.41202 6.64453C5.75577 6.26172 5.92764 5.73828 5.92764 5.07422V4.21875C5.92764 3.60938 5.75967 3.10547 5.42374 2.70703C5.0878 2.30859 4.63077 2.10938 4.05264 2.10938C3.47452 2.10938 3.01749 2.30859 2.68155 2.70703C2.34561 3.10547 2.17764 3.625 2.17764 4.26562V5.12109ZM8.86905 13.8164C8.86905 12.793 9.19327 11.9531 9.84171 11.2969C10.498 10.6328 11.3378 10.3008 12.3612 10.3008C13.3847 10.3008 14.2245 10.6289 14.8808 11.2852C15.537 11.9414 15.8651 12.8125 15.8651 13.8984V14.7305C15.8651 15.7539 15.537 16.5977 14.8808 17.2617C14.2323 17.918 13.4003 18.2461 12.3847 18.2461C11.369 18.2461 10.5292 17.9219 9.86514 17.2734C9.20108 16.6172 8.86905 15.7461 8.86905 14.6602V13.8164ZM10.4862 14.7305C10.4862 15.3477 10.6581 15.8555 11.0019 16.2539C11.3456 16.6445 11.8065 16.8398 12.3847 16.8398C12.9472 16.8398 13.3964 16.6484 13.7323 16.2656C14.0683 15.875 14.2362 15.3477 14.2362 14.6836V13.8164C14.2362 13.1992 14.0644 12.6953 13.7206 12.3047C13.3847 11.9141 12.9315 11.7188 12.3612 11.7188C11.8065 11.7188 11.3534 11.9141 11.0019 12.3047C10.6581 12.6875 10.4862 13.207 10.4862 13.8633V14.7305ZM4.56827 16.7109L3.3378 15.9375L11.6698 2.60156L12.9003 3.375L4.56827 16.7109Z" fill="#919191"/>
</svg>
