<svg width="34" height="34" viewBox="0 0 34 34" fill="none" xmlns="http://www.w3.org/2000/svg">
<path d="M17 34C26.3888 34 34 26.3888 34 17C34 7.61116 26.3888 0 17 0C7.61116 0 0 7.61116 0 17C0 26.3888 7.61116 34 17 34Z" fill="#F3F4F6"/>
<path d="M17 16.5C17.9612 16.4661 18.8696 16.0522 19.5258 15.3491C20.182 14.646 20.5324 13.7112 20.5 12.75C20.5324 11.7888 20.182 10.854 19.5258 10.1509C18.8696 9.44784 17.9612 9.0339 17 9C16.0388 9.0339 15.1304 9.44784 14.4742 10.1509C13.818 10.854 13.4676 11.7888 13.5 12.75C13.4676 13.7112 13.818 14.646 14.4742 15.3491C15.1304 16.0522 16.0388 16.4661 17 16.5V16.5ZM17 18.375C14.664 18.375 10 19.631 10 22.125V24H24V22.125C24 19.631 19.336 18.375 17 18.375Z" stroke="#FF0000" stroke-width="2"/>
</svg>
