<svg width="12" height="12" viewBox="0 0 12 12" fill="none" xmlns="http://www.w3.org/2000/svg">
<path d="M5.994 3.00027e-06C4.80757 0.00118943 3.64812 0.354091 2.66222 1.0141C1.67631 1.67411 0.908211 2.6116 0.455005 3.70806C0.00179929 4.80452 -0.116165 6.01073 0.116024 7.17422C0.348212 8.33771 0.920129 9.40625 1.75948 10.2448C2.59884 11.0833 3.66794 11.6541 4.83167 11.8851C5.99539 12.1162 7.20148 11.997 8.29749 11.5427C9.39349 11.0884 10.3302 10.3194 10.9892 9.3328C11.6483 8.34624 12 7.18644 12 6C12 5.21157 11.8446 4.43086 11.5427 3.70252C11.2408 2.97417 10.7983 2.31247 10.2405 1.75524C9.68274 1.19801 9.02059 0.756178 8.29195 0.455003C7.5633 0.153827 6.78244 -0.000785436 5.994 3.00027e-06ZM6 10.8C5.05065 10.8 4.12262 10.5185 3.33327 9.99106C2.54391 9.46363 1.92868 8.71397 1.56538 7.83688C1.20208 6.9598 1.10702 5.99468 1.29223 5.06357C1.47744 4.13246 1.9346 3.27718 2.60589 2.60589C3.27718 1.9346 4.13246 1.47744 5.06357 1.29223C5.99468 1.10702 6.9598 1.20208 7.83688 1.56538C8.71397 1.92868 9.46363 2.54391 9.99106 3.33327C10.5185 4.12262 10.8 5.05065 10.8 6C10.8 6.63035 10.6758 7.25452 10.4346 7.83688C10.1934 8.41925 9.83984 8.94839 9.39412 9.39412C8.94839 9.83984 8.41925 10.1934 7.83688 10.4346C7.25452 10.6758 6.63035 10.8 6 10.8ZM6.3 3H5.4V6.6L8.55 8.49L9 7.752L6.3 6.15V3Z" fill="#95989A"/>
</svg>
